<?xml version="1.0" encoding="UTF-8"?>
<svg id="Capa_1" data-name="Capa 1" xmlns="http://www.w3.org/2000/svg" xmlns:xlink="http://www.w3.org/1999/xlink" viewBox="0 0 601.86 376.2">
  <defs>
    <style>
      .cls-1 {
        fill: #0b0b41;
      }

      .cls-2 {
        fill: url(#Degradado_sin_nombre_2-2);
      }

      .cls-3 {
        fill: url(#Degradado_sin_nombre_2-3);
      }

      .cls-4 {
        fill: url(#Degradado_sin_nombre_2);
      }
    </style>
    <linearGradient id="Degradado_sin_nombre_2" data-name="Degradado sin nombre 2" x1="26.83" y1="203.82" x2="90.64" y2="92.16" gradientUnits="userSpaceOnUse">
      <stop offset="0" stop-color="#ff3246"/>
      <stop offset="1" stop-color="#fe0289"/>
    </linearGradient>
    <linearGradient id="Degradado_sin_nombre_2-2" data-name="Degradado sin nombre 2" x1="151.95" y1="275.32" x2="215.75" y2="163.66" xlink:href="#Degradado_sin_nombre_2"/>
    <linearGradient id="Degradado_sin_nombre_2-3" data-name="Degradado sin nombre 2" x1="91.98" y1="241.05" x2="155.78" y2="129.39" xlink:href="#Degradado_sin_nombre_2"/>
  </defs>
  <path class="cls-4" d="M29.03,220.08c-5.11-4.65-7.67-11.82-7.67-21.52v-34.68H9.44v-14.4h11.92v-30.97h15.02v30.97h40.57v14.4H36.38v34.53c0,5.06,1.13,8.67,3.41,10.84,2.27,2.17,5.93,3.25,11,3.25,3.3,0,5.83-.54,7.59-1.63,1.75-1.08,3.04-2.86,3.87-5.34l14.71,.62c-.62,6.92-3.25,12.13-7.9,15.64-4.65,3.51-10.74,5.26-18.27,5.26-9.39,0-16.65-2.32-21.76-6.97Z"/>
  <path class="cls-2" d="M229.94,154.81c5.99,3.46,10.73,8.16,14.24,14.09,3.51,5.94,5.27,12.41,5.27,19.43s-1.76,13.52-5.27,19.51c-3.51,5.99-8.26,10.71-14.24,14.17-5.99,3.46-12.6,5.19-19.82,5.19-9.5,0-17.86-2.89-25.08-8.67v39.18h-14.86v-108.23h14.86v8.83c7.22-5.78,15.59-8.67,25.08-8.67,7.23,0,13.83,1.73,19.82,5.19Zm-7.51,54.35c3.66-2.12,6.56-5.01,8.67-8.67,2.11-3.66,3.17-7.72,3.17-12.16s-1.06-8.33-3.17-12c-2.12-3.66-5.01-6.58-8.67-8.75-3.66-2.17-7.77-3.25-12.31-3.25s-8.83,1.06-12.54,3.17c-3.72,2.12-6.63,5.01-8.75,8.67-2.12,3.66-3.17,7.72-3.17,12.16s1.06,8.49,3.17,12.16c2.12,3.67,5.03,6.56,8.75,8.67,3.71,2.12,7.9,3.17,12.54,3.17s8.65-1.06,12.31-3.17Z"/>
  <path class="cls-1" d="M269.51,220.69c-5.42-4.13-8.54-9.7-9.37-16.72l14.86-.31c1.24,5.78,6.55,8.67,15.95,8.67,5.27,0,9.32-.64,12.16-1.94,2.84-1.29,4.26-3.22,4.26-5.81,0-2.89-.83-5.03-2.48-6.43-1.65-1.39-4.65-2.45-8.98-3.17l-11.3-2.01c-7.64-1.34-13.42-3.56-17.34-6.66-3.92-3.1-5.88-7.53-5.88-13.32,0-7.12,2.68-12.83,8.05-17.11,5.37-4.28,12.33-6.43,20.9-6.43s16.26,1.96,21.83,5.88c5.57,3.92,8.67,9.55,9.29,16.88l-15.02,.46c-.52-3.3-2.14-5.6-4.88-6.89-2.74-1.29-6.32-1.93-10.76-1.93-9.6,0-14.4,3.05-14.4,9.13,0,4.85,2.89,7.85,8.67,8.98l11.3,2.17c9.19,1.76,15.82,4.1,19.9,7.05,4.08,2.94,6.12,7.35,6.12,13.24,0,6.92-2.89,12.39-8.67,16.41-5.78,4.03-13.37,6.04-22.76,6.04-8.88,0-16.02-2.06-21.45-6.19Z"/>
  <path class="cls-1" d="M338.48,135.84c-1.65-1.65-2.48-3.61-2.48-5.88s.82-4.39,2.48-6.04c1.65-1.65,3.66-2.48,6.04-2.48s4.36,.83,5.96,2.48c1.6,1.65,2.4,3.67,2.4,6.04s-.8,4.23-2.4,5.88c-1.6,1.65-3.59,2.48-5.96,2.48s-4.39-.82-6.04-2.48Zm13.47,91.2h-15.02v-77.58h15.02v77.58Z"/>
  <path class="cls-1" d="M384.86,220.08c-5.11-4.65-7.67-11.82-7.67-21.52v-34.68h-11.92v-14.4h11.92v-30.97h15.02v30.97h40.57v14.4h-40.57v34.53c0,5.06,1.13,8.67,3.41,10.84,2.27,2.17,5.93,3.25,11,3.25,3.3,0,5.83-.54,7.59-1.63,1.75-1.08,3.04-2.86,3.87-5.34l14.71,.62c-.62,6.92-3.25,12.13-7.9,15.64-4.65,3.51-10.74,5.26-18.27,5.26-9.39,0-16.65-2.32-21.76-6.97Z"/>
  <path class="cls-1" d="M519.49,190.5h-63.8c.52,6.3,3.07,11.56,7.66,15.79,4.59,4.23,10.19,6.35,16.8,6.35,4.65,0,8.93-1.16,12.85-3.48,3.92-2.32,6.97-5.75,9.14-10.3l13.78,6.5c-4.13,7.85-9.19,13.45-15.17,16.8-5.99,3.36-12.85,5.03-20.6,5.03-7.33,0-14.01-1.73-20.05-5.19-6.04-3.46-10.81-8.15-14.32-14.09-3.51-5.93-5.26-12.46-5.26-19.59s1.75-13.5,5.26-19.43c3.51-5.94,8.28-10.63,14.32-14.09,6.04-3.46,12.72-5.19,20.05-5.19s13.8,1.73,19.74,5.19c5.93,3.46,10.66,8.11,14.17,13.94,3.51,5.83,5.32,12.16,5.42,18.97v2.79Zm-55.98-20.13c-4.59,4.13-7.2,9.24-7.82,15.33h48.47c-.41-3.82-1.73-7.38-3.95-10.68-2.22-3.3-5.09-5.93-8.59-7.9-3.51-1.96-7.33-2.94-11.46-2.94-6.5,0-12.05,2.07-16.65,6.19Z"/>
  <path class="cls-1" d="M539.55,220.69c-5.42-4.13-8.54-9.7-9.37-16.72l14.86-.31c1.24,5.78,6.55,8.67,15.95,8.67,5.27,0,9.32-.64,12.16-1.94,2.84-1.29,4.26-3.22,4.26-5.81,0-2.89-.83-5.03-2.48-6.43-1.65-1.39-4.65-2.45-8.98-3.17l-11.3-2.01c-7.64-1.34-13.42-3.56-17.34-6.66-3.92-3.1-5.88-7.53-5.88-13.32,0-7.12,2.68-12.83,8.05-17.11,5.37-4.28,12.33-6.43,20.9-6.43s16.26,1.96,21.83,5.88c5.57,3.92,8.67,9.55,9.29,16.88l-15.02,.46c-.52-3.3-2.14-5.6-4.88-6.89-2.74-1.29-6.32-1.93-10.76-1.93-9.6,0-14.4,3.05-14.4,9.13,0,4.85,2.89,7.85,8.67,8.98l11.3,2.17c9.19,1.76,15.82,4.1,19.9,7.05,4.08,2.94,6.12,7.35,6.12,13.24,0,6.92-2.89,12.39-8.67,16.41-5.78,4.03-13.37,6.04-22.76,6.04-8.88,0-16.02-2.06-21.45-6.19Z"/>
  <path class="cls-3" d="M130.99,153.42c-6.43-1.65-12.95-1.61-19.38,.11-6.45,1.73-12.2,5.09-17.1,9.99-4.95,4.95-8.36,10.75-10.12,17.22-1.76,6.47-1.81,13.01-.16,19.44,1.66,6.47,4.93,12.18,9.73,16.98s10.6,8.16,17.06,9.82c6.44,1.66,12.98,1.6,19.45-.16,6.47-1.76,12.26-5.16,17.22-10.12s8.26-10.66,9.99-17.1c1.72-6.43,1.74-12.98,.05-19.44-1.69-6.49-4.98-12.22-9.77-17s-10.5-8.07-16.98-9.73Zm13.97,30.1c.6,2.29,.85,4.55,.8,6.8-1.81-1.47-3.84-2.53-6.11-3.15-.08-.02-.16-.04-.24-.06-2.97-.75-5.93-.74-8.88,.05-2.97,.8-5.59,2.32-7.85,4.59-2.3,2.3-3.85,4.94-4.66,7.93-.81,2.98-.84,5.95-.08,8.91,.61,2.36,1.7,4.47,3.22,6.35-2.26,.06-4.51-.17-6.79-.76-4.22-1.08-7.83-3.17-11.03-6.37-3.15-3.15-5.21-6.73-6.29-10.96-1.09-4.25-1.06-8.4,.11-12.68,1.16-4.28,3.35-7.98,6.69-11.32,3.27-3.27,6.93-5.42,11.17-6.56,4.26-1.14,8.41-1.16,12.66-.07,4.23,1.09,7.81,3.15,10.96,6.29,3.15,3.15,5.22,6.76,6.34,11.02Z"/>
</svg>